<?xml version="1.0" encoding="utf-8"?>
<!-- Generator: Adobe Illustrator 16.0.4, SVG Export Plug-In . SVG Version: 6.00 Build 0)  -->
<!DOCTYPE svg PUBLIC "-//W3C//DTD SVG 1.1//EN" "http://www.w3.org/Graphics/SVG/1.1/DTD/svg11.dtd">
<svg version="1.1" id="Layer_1" xmlns="http://www.w3.org/2000/svg" xmlns:xlink="http://www.w3.org/1999/xlink" x="0px" y="0px"
     width="500.0px" height="500.0px" viewBox="0 0 500 500" enable-background="new 0 0 500 500"
     xml:space="preserve">

<g transform="translate(250 250)">
	<!-- torso -->
    <polygon fill="#EF161F" points="-125,-50 50,-50 -125,50 "/>
    <polygon fill="#EF161F" points="-125,50 50,-50 50,50"/>

    <!-- head -->
    <g transform="translate(95 -45)">
        <g transform="rotate(45)">
			<g transform="scale(0.7 0.7)">
				<polygon fill="#EF161F" points="-50,-50 50,-50 -50,50 "/>
                <polygon fill="#EF161F" points="-50,50 50,-50 50,50"/>
			</g>
		</g>
	</g>

    <!-- left leg -->
    <g transform="translate(-10 80)">
		<g transform="scale(.2 .6)">
			<polygon fill="#EF161F" points="-50,-70 50,-50 -50,75"/>
            <polygon fill="#EF161F" points="-50,70 50,-70 50,70"/>
		</g>
        <g transform="translate(0 70)">
			<g transform="scale(.2 .6)">
				<polygon fill="#EF161F" points="-50,-60 50,-50 -50,60 "/>
                <polygon fill="#EF161F" points="-50,50 50,-50 50,50"/>
			</g>
		</g>
	</g>

    <!-- right leg -->
    <g transform="translate(40 80)">
		<g transform="scale(.2 .6)">
			<polygon fill="#EF161F" points="-50,-70 50,-65 -50,70 "/>
            <polygon fill="#EF161F" points="-50,70 50,-75 50,65"/>
		</g>
        <g transform="translate(0 70)">
			<g transform="scale(.2 .6)">
				<polygon fill="#EF161F" points="-50,-60 50,-50 -50,50 "/>
                <polygon fill="#EF161F" points="-50,50 50,-50 50,50"/>
			</g>
		</g>
	</g>

    <!-- left leg -->
    <g transform="translate(-50 80)">
		<g transform="scale(.2 .6)">
			<polygon fill="#EF161F" points="-50,-70 50,-65 -50,70"/>
            <polygon fill="#EF161F" points="-50,70 50,-75 50,65"/>
		</g>
        <g transform="translate(0 70)">
			<g transform="scale(.2 .6)">
				<polygon fill="#EF161F" points="-50,-60 50,-50 -50,50 "/>
                <polygon fill="#EF161F" points="-50,50 50,-50 50,50"/>
			</g>
		</g>
	</g>

    <!-- right leg -->
    <g transform="translate(-110 80)">
		<g transform="scale(.2 .6)">
			<polygon fill="#EF161F" points="-50,-70 50,-65 -50,70 "/>
            <polygon fill="#EF161F" points="-50,70 50,-75 50,65"/>
		</g>
        <g transform="translate(0 70)">
			<g transform="scale(.2 .6)">
				<polygon fill="#EF161F" points="-50,-60 50,-50 -50,50 "/>
                <polygon fill="#EF161F" points="-50,50 50,-50 50,50"/>
			</g>
		</g>
	</g>

    <g transform="translate(-110 -45)">
        <g transform="rotate(40)">
		    <g transform="scale(.6 .2)">
			    <polygon fill="#EF161F" points="-50,-50 50,-50 -50,50 "/>
                <polygon fill="#EF161F" points="-50,50 50,-50 50,50"/>
            </g>
		</g>
        <g transform="translate(-40 -34)">
            <g transform="rotate(40)">
			    <g transform="scale(.6 .2)">
				    <polygon fill="#EF161F" points="-50,-50 50,-50 -50,50 "/>
                    <polygon fill="#EF161F" points="-50,50 50,-50 50,50"/>
                </g>
			</g>
		</g>
	</g>


    <g transform="translate(105 -85)">
        <g transform="rotate(-45)">
            <g transform="scale(.6 .2)">
			    <polygon fill="#EF161F" points="-50,-50 50,-50 -50,50 "/>
                <polygon fill="#EF161F" points="-50,50 50,-50 50,50"/>
		    </g>
        </g>
        <g transform="translate(-20 0)">
            <g transform="rotate(44)" >
			    <g transform="scale(.6 .2)">
				    <polygon fill="#EF161F" points="-50,-50 50,-50 -50,50 "/>
                    <polygon fill="#EF161F" points="-50,50 50,-50 50,50"/>
			    </g>
            </g>
		</g>
	</g>

</g>


</svg>
